<?xml version="1.0" encoding="UTF-8"?>
<svg id="a" data-name="Layer_1" xmlns="http://www.w3.org/2000/svg" width="16" height="16" viewBox="0 0 16 8">
  <defs>
    <style>
      .b {
        fill: #fff;
      }
    </style>
  </defs>
  <rect class="b" width="16" height="16"/>
  <g>
    <path d="M5.67,9.25c-.2,0-.29-.13-.29-.4v-2.58c0-1.15-.8-1.72-2.4-1.72-.89,0-1.71.23-2.45.69v1.45c.64-.63,1.33-.95,2.09-.95.7,0,1.02.32.98.95-1.61.48-2.57.87-2.88,1.17-.32.3-.48.7-.48,1.19,0,.37.15.69.46.97.31.28.68.42,1.12.42.62,0,1.24-.21,1.86-.64.1.42.44.64.99.64.52,0,1.07-.17,1.67-.52v-.99c-.3.21-.52.32-.67.32h0ZM2.61,9.39c-.16,0-.3-.06-.41-.18-.11-.12-.17-.26-.17-.42,0-.26.11-.47.33-.63.22-.17.63-.35,1.23-.56v1.37c-.32.28-.65.43-.98.43h0Z"/>
    <path d="M9.56,9.18c-.51,0-.92-.15-1.23-.46s-.47-.71-.47-1.21.16-.89.48-1.19c.32-.3.74-.44,1.28-.44.48,0,.96.13,1.45.38v-1.32c-.67-.25-1.31-.37-1.91-.37-.93,0-1.7.28-2.3.84-.6.56-.9,1.27-.9,2.13s.3,1.59.89,2.12c.6.53,1.39.8,2.38.8.58,0,1.22-.13,1.91-.38v-1.28c-.69.26-1.22.39-1.59.39h0Z"/>
    <path d="M13.74,4.68v-1.78h-.22l-2.37,2.65v.35h.81v2.43c0,.7.19,1.22.58,1.58s.92.54,1.62.54c.53,0,1.08-.12,1.65-.35v-1.29c-.43.22-.82.33-1.19.33-.27,0-.48-.08-.64-.24-.15-.16-.23-.38-.23-.66v-2.33h2.06v-1.22h-2.06Z"/>
    <path d="M.37,11.4l-.31.78h.2l.06-.15h.35l.06.15h.21l-.34-.78h-.22ZM.37,11.89l.11-.3.13.3h-.24Z"/>
    <path d="M.72,11.4v.14h.28v.63h.19v-.63h.28v-.14h-.75Z"/>
    <path d="M1.67,12.04v-.63h-.19v.78h.59v-.14h-.4Z"/>
    <path d="M2.2,11.4l-.31.78h.2l.06-.15h.35l.06.15h.21l-.34-.78h-.22ZM2.2,11.89l.11-.3.13.3h-.24Z"/>
    <path d="M3,11.39c-.09,0-.16.02-.22.06-.05.04-.08.09-.08.16,0,.05.01.09.04.13s.05.06.09.08c.03.02.08.04.14.06.06.02.09.04.11.05.02.01.02.03.02.05,0,.05-.04.07-.11.07-.04,0-.09,0-.13-.02-.04-.02-.09-.04-.14-.08v.17c.09.05.18.07.28.07.09,0,.16-.02.22-.06.05-.04.08-.1.08-.17,0-.05-.01-.09-.04-.12-.02-.03-.05-.06-.09-.08-.03-.02-.08-.04-.14-.06-.06-.02-.09-.04-.11-.05-.01-.01-.02-.03-.02-.04,0-.02.01-.03.03-.05s.05-.02.08-.02c.06,0,.14.02.25.07v-.15c-.09-.04-.18-.06-.26-.06h0Z"/>
    <path d="M4.2,12.01s-.08.02-.12.02c-.08,0-.15-.02-.2-.07s-.08-.1-.08-.17.03-.12.08-.17c.05-.04.12-.07.2-.07s.17.03.27.08v-.17c-.08-.05-.17-.07-.28-.07-.14,0-.25.04-.34.12s-.13.17-.13.28.04.21.12.28c.08.08.19.11.33.11.11,0,.21-.03.3-.08v-.17c-.07.04-.13.06-.17.07Z"/>
    <path d="M4.43,12.18h.19v-.31h.06s.05.01.07.03c.02.02.05.07.08.14.03.07.05.12.07.15h.21c-.03-.07-.07-.14-.1-.22-.04-.08-.07-.13-.11-.14.09-.04.13-.1.13-.19,0-.06-.02-.11-.07-.16-.05-.04-.11-.07-.18-.07h-.35v.78ZM4.72,11.55c.07,0,.11.03.11.09,0,.03,0,.05-.03.07-.02.02-.04.02-.08.02h-.1v-.18h.1Z"/>
    <path d="M5.35,12.04v-.19h.35v-.14h-.35v-.16h.37v-.14h-.56v.78h.57v-.14h-.38Z"/>
    <path d="M6.06,11.4l-.31.78h.2l.06-.15h.35l.06.15h.21l-.34-.78h-.22ZM6.06,11.89l.11-.3.13.3h-.24Z"/>
    <path d="M6.47,11.4v.14h.28v.63h.19v-.63h.28v-.14h-.75Z"/>
    <path d="M7.31,11.4v.78h.19v-.78h-.19Z"/>
    <path d="M8.15,11.4l-.19.44-.21-.44h-.21l.38.79h.08l.36-.79h-.21Z"/>
    <path d="M8.59,12.04v-.19h.35v-.14h-.35v-.16h.37v-.14h-.56v.78h.57v-.14h-.38Z"/>
    <path d="M9.29,11.4v.14h.28v.63h.19v-.63h.28v-.14h-.75Z"/>
    <path d="M10.12,11.4v.78h.19v-.78h-.19Z"/>
    <path d="M10.39,11.4v.14h.28v.63h.19v-.63h.28v-.14h-.75Z"/>
    <path d="M11.31,11.4l-.31.78h.2l.06-.15h.35l.06.15h.21l-.34-.78h-.22ZM11.31,11.89l.11-.3.13.3h-.24Z"/>
    <path d="M12.51,11.4v.47l-.41-.47h-.18v.78h.19v-.5l.43.5h.16v-.78h-.19Z"/>
    <path d="M13.09,11.39c-.09,0-.16.02-.22.06-.05.04-.08.09-.08.16,0,.05.01.09.04.13.02.03.05.06.09.08.03.02.08.04.14.06.06.02.09.04.11.05.02.01.02.03.02.05,0,.05-.04.07-.11.07-.04,0-.09,0-.13-.02-.04-.02-.09-.04-.14-.08v.17c.09.05.18.07.28.07.09,0,.16-.02.22-.06.05-.04.08-.1.08-.17,0-.05-.01-.09-.04-.12-.02-.03-.05-.06-.09-.08-.03-.02-.08-.04-.14-.06-.06-.02-.09-.04-.11-.05-.01-.01-.02-.03-.02-.04,0-.02.01-.03.03-.05.02-.01.05-.02.08-.02.06,0,.14.02.25.07v-.15c-.09-.04-.18-.06-.26-.06h0Z"/>
    <path d="M13.74,11.4v.78h.19v-.78h-.19Z"/>
    <path d="M14.66,11.4v.47l-.41-.47h-.18v.78h.19v-.5l.43.5h.16v-.78h-.19Z"/>
    <path d="M15.53,12.01s-.08.02-.12.02c-.08,0-.15-.02-.2-.07s-.08-.1-.08-.17.03-.12.08-.17c.05-.04.12-.07.2-.07s.17.03.27.08v-.17c-.08-.05-.17-.07-.28-.07-.14,0-.25.04-.34.12-.09.08-.13.17-.13.28s.04.21.12.28c.08.08.19.11.33.11.11,0,.21-.03.3-.08v-.17c-.07.04-.13.06-.17.07Z"/>
    <path d="M15.83,12.16s.04.03.07.03.05,0,.07-.03c.02-.02.03-.04.03-.07s0-.05-.03-.07c-.02-.02-.04-.03-.07-.03s-.05,0-.07.03-.03.04-.03.07,0,.05.03.07Z"/>
  </g>
</svg>